<svg xmlns="http://www.w3.org/2000/svg" viewBox="0 0 1000 1500" preserveAspectRatio="none">
  <defs>
    <style>
      .navy{fill:#123e5f}.blue{fill:#2f759e}.pale{fill:#c9dce8}.orange{fill:#cf7d52}.line{fill:none;stroke:#123e5f;stroke-width:6}.thin{fill:none;stroke:#6f9cb6;stroke-width:3}
    </style>
    <g id="rosette">
      <path class="pale" d="M50 2C62 14 66 25 62 36c13-5 25-2 36 10-11 12-23 15-36 10 4 12 0 24-12 36-12-12-16-24-12-36-13 5-25 2-36-10 11-12 23-15 36-10C34 25 38 14 50 2Z"/>
      <path class="blue" d="M50 11c7 9 9 18 6 27 10-4 19-2 27 6-8 8-17 10-27 6 3 9 1 18-6 27-7-9-9-18-6-27-10 4-19 2-27-6 8-8 17-10 27-6-3-9-1-18 6-27Z"/>
      <circle class="orange" cx="50" cy="44" r="9"/>
      <circle class="navy" cx="50" cy="44" r="4"/>
    </g>
    <pattern id="topPattern" width="100" height="78" patternUnits="userSpaceOnUse">
      <rect width="100" height="78" fill="#f8faf9"/>
      <path class="navy" d="M0 65Q25 31 50 65T100 65V78H0Z"/>
      <path class="blue" d="M0 70Q25 44 50 70T100 70V78H0Z"/>
      <use href="#rosette" transform="translate(0 0) scale(1 .82)"/>
    </pattern>
    <pattern id="sidePattern" width="78" height="100" patternUnits="userSpaceOnUse">
      <rect width="78" height="100" fill="#f8faf9"/>
      <path class="navy" d="M65 0Q31 25 65 50T65 100H78V0Z"/>
      <path class="blue" d="M70 0Q44 25 70 50T70 100H78V0Z"/>
      <use href="#rosette" transform="translate(-4 0) rotate(90 50 44) scale(.82 1)"/>
    </pattern>
    <g id="corner">
      <path class="navy" d="M0 0h115v18H18v97H0Z"/>
      <path class="blue" d="M15 15h84v12H27v72H15Z"/>
      <circle class="pale" cx="28" cy="28" r="22"/>
      <path class="blue" d="M28 5l7 15 16-2-12 11 8 15-17-7-13 12 2-17L4 24l17-3Z"/>
      <circle class="orange" cx="28" cy="28" r="7"/>
    </g>
  </defs>

  <rect x="12" y="12" width="976" height="1476" rx="8" class="line"/>
  <rect x="24" y="24" width="952" height="1452" rx="6" class="thin"/>
  <rect x="36" y="36" width="928" height="1428" rx="3" class="line"/>
  <rect x="52" y="52" width="896" height="1396" rx="2" class="thin"/>

  <rect x="36" y="36" width="928" height="76" fill="url(#topPattern)"/>
  <rect x="36" y="1388" width="928" height="76" fill="url(#topPattern)" transform="rotate(180 500 1426)"/>
  <rect x="36" y="112" width="76" height="1276" fill="url(#sidePattern)"/>
  <rect x="888" y="112" width="76" height="1276" fill="url(#sidePattern)" transform="rotate(180 926 750)"/>

  <use href="#corner" transform="translate(18 18)"/>
  <use href="#corner" transform="translate(982 18) scale(-1 1)"/>
  <use href="#corner" transform="translate(18 1482) scale(1 -1)"/>
  <use href="#corner" transform="translate(982 1482) scale(-1 -1)"/>

  <rect x="108" y="108" width="784" height="1284" rx="2" fill="none" stroke="#123e5f" stroke-width="5"/>
  <rect x="119" y="119" width="762" height="1262" rx="1" fill="none" stroke="#7fa6bb" stroke-width="2"/>
</svg>